<svg width="161" height="22" viewBox="0 0 161 22" fill="none" xmlns="http://www.w3.org/2000/svg">
<g clip-path="url(#clip0_19001_211)">
<g clip-path="url(#clip1_19001_211)">
<g clip-path="url(#clip2_19001_211)">
<g clip-path="url(#clip3_19001_211)">
<path d="M27.8117 1.59638C27.8117 0.714723 27.3829 0 26.8539 0C26.3248 0 25.896 0.714723 25.896 1.59638V19.6784C25.896 20.56 26.3248 21.2747 26.8539 21.2747C27.3829 21.2747 27.8117 20.56 27.8117 19.6784V1.59638Z" fill="#EFEFEF"/>
<g clip-path="url(#clip4_19001_211)">
<g clip-path="url(#clip5_19001_211)">
<g clip-path="url(#clip6_19001_211)">
<g clip-path="url(#clip7_19001_211)">
<path d="M42.3003 3.07293C40.1362 3.07293 38.4267 3.79177 37.1717 5.22943C35.9203 6.6671 35.2947 8.63472 35.2947 11.1323C35.2947 13.7032 35.8983 15.6892 37.1054 17.0902C38.3126 18.4912 40.035 19.1917 42.2727 19.1917C43.6491 19.1917 45.217 18.9459 46.9762 18.4545V20.457C45.6108 20.9667 43.927 21.2216 41.9249 21.2216C39.0211 21.2216 36.7815 20.3433 35.2063 18.5865C33.6275 16.8335 32.838 14.3395 32.838 11.1048C32.838 9.08399 33.2171 7.31258 33.9753 5.79056C34.7371 4.26855 35.8338 3.09494 37.2655 2.26975C38.7009 1.44456 40.3883 1.03196 42.3279 1.03196C44.3926 1.03196 46.1978 1.40788 47.7436 2.15972L46.7775 4.12368C45.2832 3.42318 43.7908 3.07293 42.3003 3.07293ZM61.683 20.9521H60.0213L59.5797 18.8561H59.4693C58.7332 19.7803 57.999 20.4056 57.2666 20.732C56.5342 21.0584 55.6196 21.2216 54.5228 21.2216C53.058 21.2216 51.9098 20.8457 51.078 20.0939C50.2499 19.342 49.8359 18.2711 49.8359 16.8811C49.8359 13.9104 52.2208 12.3536 56.9905 12.2106L59.4969 12.128V11.2148C59.4969 10.0596 59.2485 9.20685 58.7516 8.65673C58.2511 8.1066 57.4524 7.83154 56.3557 7.83154C55.1264 7.83154 53.7334 8.20746 52.1766 8.9593L51.492 7.2539C52.2208 6.85781 53.0176 6.54791 53.8825 6.32419C54.751 6.10047 55.6214 5.98861 56.4937 5.98861C58.2529 5.98861 59.5576 6.3792 60.4078 7.16038C61.2579 7.93789 61.683 9.18668 61.683 10.9067V20.9521ZM54.97 19.3787C56.3612 19.3787 57.4543 18.9991 58.2492 18.2399C59.0442 17.4771 59.4417 16.4117 59.4417 15.0437V13.7124L57.2058 13.8059C55.4282 13.8683 54.1456 14.1433 53.358 14.6311C52.5704 15.1189 52.1766 15.8781 52.1766 16.9086C52.1766 17.7155 52.4213 18.3298 52.9108 18.7516C53.4003 19.1697 54.0867 19.3787 54.97 19.3787ZM73.0278 5.9611C73.6829 5.9611 74.2718 6.01612 74.7944 6.12614L74.4852 8.19462C73.8743 8.05892 73.3351 7.99107 72.8677 7.99107C71.6716 7.99107 70.6484 8.47519 69.7983 9.44341C68.9518 10.408 68.5285 11.6109 68.5285 13.0522V20.9521H66.2872V6.23067H68.1366L68.3905 8.9593H68.5009C69.0493 8.00208 69.7099 7.26307 70.4828 6.74228C71.252 6.2215 72.1004 5.9611 73.0278 5.9611ZM83.7929 21.2216C81.6105 21.2216 79.888 20.5578 78.6257 19.2302C77.3633 17.9062 76.7321 16.0669 76.7321 13.7124C76.7321 11.3395 77.3191 9.45441 78.4932 8.05709C79.6635 6.65976 81.2369 5.9611 83.2133 5.9611C85.0645 5.9611 86.5293 6.56808 87.6077 7.78202C88.686 8.99597 89.2252 10.5968 89.2252 12.5846V13.993H79.0508C79.0949 15.724 79.5329 17.037 80.3647 17.9319C81.1964 18.8267 82.3668 19.2742 83.8757 19.2742C85.4657 19.2742 87.039 18.9423 88.5958 18.2785V20.2644C87.8046 20.6055 87.0556 20.8512 86.349 21.0016C85.6423 21.1483 84.7903 21.2216 83.7929 21.2216ZM83.1912 7.83154C82.0024 7.83154 81.0566 8.21663 80.3536 8.9868C79.647 9.75698 79.2311 10.8224 79.106 12.183H86.8293C86.8293 10.7747 86.5146 9.6983 85.8852 8.9538C85.2559 8.20562 84.3579 7.83154 83.1912 7.83154ZM101.812 3.07293C99.648 3.07293 97.9385 3.79177 96.6835 5.22943C95.4321 6.6671 94.8065 8.63472 94.8065 11.1323C94.8065 13.7032 95.4101 15.6892 96.6172 17.0902C97.8281 18.4912 99.5505 19.1917 101.785 19.1917C103.161 19.1917 104.729 18.9459 106.488 18.4545V20.457C105.123 20.9667 103.439 21.2216 101.437 21.2216C98.5329 21.2216 96.2934 20.3433 94.7182 18.5865C93.1393 16.8335 92.3498 14.3395 92.3498 11.1048C92.3498 9.08399 92.7307 7.31258 93.4926 5.79056C94.2507 4.26855 95.3457 3.09494 96.7773 2.26975C98.2127 1.44456 99.9001 1.03196 101.84 1.03196C103.908 1.03196 105.715 1.40788 107.261 2.15972L106.289 4.12368C104.799 3.42318 103.306 3.07293 101.812 3.07293ZM112.688 6.23067V20.9521H110.452V6.23067H112.688ZM110.264 2.24224C110.264 1.73246 110.389 1.35837 110.639 1.11998C110.893 0.885262 111.208 0.767902 111.584 0.767902C111.944 0.767902 112.255 0.887095 112.517 1.12548C112.774 1.36754 112.903 1.73979 112.903 2.24224C112.903 2.74469 112.774 3.11878 112.517 3.3645C112.255 3.61023 111.944 3.73309 111.584 3.73309C111.208 3.73309 110.893 3.61023 110.639 3.3645C110.389 3.11878 110.264 2.74469 110.264 2.24224ZM124.17 5.9611C124.826 5.9611 125.414 6.01612 125.937 6.12614L125.628 8.19462C125.017 8.05892 124.478 7.99107 124.01 7.99107C122.814 7.99107 121.791 8.47519 120.941 9.44341C120.094 10.408 119.671 11.6109 119.671 13.0522V20.9521H117.43V6.23067H119.279L119.533 8.9593H119.644C120.192 8.00208 120.853 7.26307 121.625 6.74228C122.398 6.2215 123.247 5.9611 124.17 5.9611ZM134.599 21.2216C132.461 21.2216 130.806 20.5652 129.636 19.2522C128.462 17.9392 127.875 16.0834 127.875 13.6849C127.875 11.224 128.471 9.32238 129.663 7.98007C130.852 6.63409 132.547 5.9611 134.748 5.9611C135.458 5.9611 136.168 6.03812 136.879 6.19216C137.589 6.34253 138.147 6.52223 138.552 6.73128L137.861 8.62372C137.368 8.42567 136.829 8.26247 136.244 8.13411C135.662 8.00208 135.147 7.93606 134.698 7.93606C131.695 7.93606 130.193 9.84317 130.193 13.6574C130.193 15.4655 130.56 16.8536 131.292 17.8218C132.024 18.7901 133.11 19.2742 134.549 19.2742C135.778 19.2742 137.041 19.0101 138.336 18.482V20.457C137.346 20.9667 136.1 21.2216 134.599 21.2216ZM144.078 0.0527344V20.9521H141.836V0.0527344H144.078ZM155.058 21.2216C152.876 21.2216 151.153 20.5578 149.891 19.2302C148.628 17.9062 147.997 16.0669 147.997 13.7124C147.997 11.3395 148.582 9.45441 149.753 8.05709C150.927 6.65976 152.502 5.9611 154.478 5.9611C156.33 5.9611 157.794 6.56808 158.873 7.78202C159.951 8.99597 160.49 10.5968 160.49 12.5846V13.993H150.316C150.36 15.724 150.798 17.037 151.63 17.9319C152.462 18.8267 153.632 19.2742 155.141 19.2742C156.731 19.2742 158.302 18.9423 159.855 18.2785V20.2644C159.064 20.6055 158.317 20.8512 157.614 21.0016C156.907 21.1483 156.055 21.2216 155.058 21.2216ZM154.451 7.83154C153.266 7.83154 152.32 8.21663 151.613 8.9868C150.91 9.75698 150.494 10.8224 150.366 12.183H158.089C158.089 10.7747 157.774 9.6983 157.145 8.9538C156.519 8.20562 155.621 7.83154 154.451 7.83154Z" fill="#EFEFEF"/>
</g>
</g>
</g>
</g>
<g clip-path="url(#clip8_19001_211)">
<g clip-path="url(#clip9_19001_211)">
<path d="M10.5749 0.0530006C4.75138 0.0945021 0.306331 5.0049 0.303468 10.6872C0.300605 16.3882 4.76934 21.2654 10.6137 21.2213C16.4349 21.1772 20.8771 16.2687 20.881 10.5887C20.8844 4.88844 16.418 0.0112397 10.5749 0.0530006ZM11.0596 20.43C5.67126 20.472 1.56173 15.9686 1.56433 10.7173C1.56694 5.48373 5.65356 0.949173 11.0221 0.909487C16.4094 0.869542 20.5169 5.37297 20.5138 10.6234C20.5104 15.8547 16.4261 20.3879 11.0596 20.43Z" fill="#2ECC40"/>
<path d="M13.3765 18.5567C12.3778 18.6111 11.3787 18.6417 10.3787 18.6542C9.92214 18.6599 9.4786 18.456 9.41144 17.9507C9.38307 17.7378 9.44112 17.5438 9.47209 17.3417C9.50515 17.1259 9.53586 16.9098 9.56424 16.6935C9.62046 16.266 9.66809 15.8381 9.70922 15.4088C9.73082 15.1823 9.75061 14.9559 9.76831 14.7292C9.78679 14.4937 9.78731 14.2825 9.66992 14.0613C9.39088 13.536 8.91663 13.5163 8.41816 13.5142C7.46274 13.5103 6.50735 13.5 5.55206 13.4834C5.08327 13.4751 4.67409 13.4927 4.29979 13.1041C4.12799 12.926 4.03715 12.7441 4.01398 12.4956C3.99186 12.2567 4.01919 12.021 4.02309 11.7839C4.03467 11.0615 4.03363 10.339 4.01997 9.61673C4.01528 9.37939 3.97806 9.1462 4.03116 8.90524C4.13372 8.4386 4.54837 8.13409 4.99998 8.06976C5.14652 8.04901 6.21946 8.05264 6.36496 8.05238C6.84052 8.05109 7.31608 8.05005 7.79189 8.04927L8.54623 8.04849C8.79949 8.04823 9.03141 8.03786 9.26516 7.90765C9.49734 7.77821 9.63686 7.61895 9.72536 7.36709C9.80943 7.12794 9.77456 6.90305 9.75529 6.66649C9.68574 5.78466 9.58476 4.90558 9.45257 4.03089C9.42134 3.82805 9.37526 3.63507 9.42732 3.42289C9.48224 3.19956 9.58714 3.05457 9.78158 2.93136C10.0036 2.79052 10.2241 2.78533 10.469 2.7874C11.2129 2.79382 11.9567 2.8074 12.7003 2.82813C12.9337 2.83461 13.1675 2.83695 13.4007 2.85069C13.6561 2.86548 13.8518 2.95471 14.0501 3.10774C14.4895 3.44676 14.5322 3.78162 14.6241 4.27082C14.7071 4.71203 14.7777 5.1548 14.8391 5.59965C14.905 6.07769 14.944 6.55885 15.0052 7.03741C15.0643 7.50015 15.4037 7.98131 15.9008 8.06146C16.0354 8.08299 17.1518 8.08195 17.2853 8.08325C17.6758 8.0874 18.0662 8.09207 18.4567 8.09752C18.965 8.10478 19.2131 8.52057 19.2909 8.95634C19.3417 9.2401 19.3552 10.3931 19.3549 10.6761C19.3547 11.1689 19.3411 11.6609 19.3133 12.1532C19.2896 12.5766 19.0712 13.2263 18.5418 13.28C18.0493 13.3298 17.5555 13.3407 17.0618 13.3635C16.8251 13.3744 16.5885 13.3845 16.3519 13.3939C16.0932 13.404 15.8475 13.391 15.6028 13.5306C15.3688 13.6642 15.2241 13.8364 15.1124 14.0771C15.0044 14.3095 14.994 14.5479 14.9682 14.7917C14.9168 15.2816 14.8535 15.7701 14.7782 16.257C14.7399 16.5034 14.5864 17.4652 14.4953 17.7046C14.3263 18.1497 13.8682 18.5299 13.3765 18.5567Z" fill="#2ECC40"/>
</g>
</g>
</g>
</g>
</g>
</g>
<defs>
<clipPath id="clip0_19001_211">
<rect width="161" height="21.3916" fill="white"/>
</clipPath>
<clipPath id="clip1_19001_211">
<rect width="161" height="21.3916" fill="white" transform="translate(-0.0975342 -0.0585938)"/>
</clipPath>
<clipPath id="clip2_19001_211">
<rect width="160.198" height="21.2747" fill="white" transform="translate(0.303467)"/>
</clipPath>
<clipPath id="clip3_19001_211">
<rect width="160.198" height="21.2747" fill="white" transform="translate(0.303467)"/>
</clipPath>
<clipPath id="clip4_19001_211">
<rect width="127.675" height="21.1689" fill="white" transform="translate(32.8268 0.0527344)"/>
</clipPath>
<clipPath id="clip5_19001_211">
<rect width="127.675" height="21.1689" fill="white" transform="translate(32.8268 0.0527344)"/>
</clipPath>
<clipPath id="clip6_19001_211">
<rect width="127.675" height="21.1689" fill="white" transform="translate(32.8268 0.0527344)"/>
</clipPath>
<clipPath id="clip7_19001_211">
<rect width="127.675" height="21.1689" fill="white" transform="translate(32.8268 0.0527344)"/>
</clipPath>
<clipPath id="clip8_19001_211">
<rect width="20.5776" height="21.1689" fill="white" transform="translate(0.303467 0.0527344)"/>
</clipPath>
<clipPath id="clip9_19001_211">
<rect width="20.5776" height="21.1689" fill="white" transform="translate(0.303467 0.0527344)"/>
</clipPath>
</defs>
</svg>
